<?xml version="1.0" encoding="UTF-8"?>
<svg width="536.7" height="746.54" version="1.1" viewBox="0 0 142 197.52" xmlns="http://www.w3.org/2000/svg">
 <g transform="translate(-108 -52.979)">
  <g stroke="#000" stroke-linecap="round">
   <path d="m116.85 122.53c-13.062-12.048 21.246-25.289 64.268-14.599 29.181 7.2506 59.513 23.573 55.585 34.664-3.9283 11.091-36.034 11.758-65.524 5.9403-25.997-5.1289-42.66-15.243-54.329-26.005z" fill="#2a9700" stroke-width="12.079"/>
   <path d="m158.31 67.145c-2.3588-17.639 32.464-5.7972 58.722 30.022 17.811 24.296 30.721 56.301 20.627 62.302-10.094 6.001-35.204-14.088-54.166-37.481-16.716-20.622-23.077-39.086-25.184-54.843z" fill="#36c000" stroke-width="12.079"/>
   <path d="m230.77 200.08c-18.429 24.607-37.945 34.921-57.275 24.959-19.329-9.9616-21.3-29.846-12.723-61.033 8.1647-29.686 28.655-49.568 61.118-32.853 30.784 15.851 24.989 47.418 8.8799 68.927z" fill="#8cb300" stroke-width="12.079"/>
  </g>
  <path d="m167.29 158.55c22.891-39.953 63.904-15.998 62.254 11.299-0.95088 15.731-17.022 39.58-27.621 41.615-2.8255-16.031-24.539-27.453-41.155-10.434-7.767 5.8766-1.676 27.62-1.676 27.62s29.386 10.59 49.709-5.9316c20.323-16.521 40.516-49.356 38.234-56.408-7.2059-15.501-24.224-35.066-38.471-39.981-6.8203-2.3529-20.379-2.1708-28.327 4.9049-9.4103 8.3771-12.947 27.316-12.947 27.316z" fill-opacity=".26733" fill-rule="evenodd"/>
  <path d="m192.14 229.12c-26.806 24.149-34.013 19.858-29.007-14.192" fill="none" stroke="#000" stroke-width="12.079"/>
  <path d="m230.8 199.87c-18.429 24.607-37.945 34.921-57.275 24.959-19.329-9.9617-21.3-29.846-12.723-61.033 8.1647-29.686 28.655-49.568 61.118-32.853 30.784 15.851 24.989 47.418 8.8799 68.927z" fill="none" stroke="#000" stroke-linecap="round" stroke-width="12.079"/>
  <g>
   <path d="m165.72 207.89c3.149-7.2366 11.922-9.1168 20.098-5.4456 8.1764 3.6713 12.66 11.504 8.9087 19.638-26.806 24.149-34.013 19.858-29.007-14.192z" fill="#eff650" fill-rule="evenodd" stroke="#000" stroke-width="4.0262"/>
   <path d="m164 226.5c1.2345-2.8801 6.4691-3.345 9.6745-1.8838 3.2054 1.4611 6.853 6.2793 5.3824 9.5165-11.265 8.4771-15.602 6.108-15.057-7.6327z" fill="#ff3232" fill-rule="evenodd" stroke="#000" stroke-width="4.0262"/>
   <circle transform="rotate(1.4214)" cx="224.55" cy="148.56" r="7.3809" fill="#fff"/>
   <circle transform="rotate(1.4214)" cx="210.96" cy="155.06" r="3.53" fill="#fff"/>
  </g>
 </g>
</svg>
